PathFileType	4	(X/Y/Z)	C:/Users/beibeiliu/ov580/test_trc/User1\sequence.7_training_dense_left.trc
DataRate	CameraRate	NumFrames	NumMarkers	Units	OrigDataRate	OrigDataStartFrame	OrigNumFrames
120	120	20	19	mm	120	37	295
Frame#	Time	ThumbCMC			ThumbMCP			ThumbIP			ThumbTip			IndexMCP			IndexPIP			IndexTip			MiddleMCP			MiddlePIP			MiddleTip			RingMCP			RingPIP			RingTip			PinkyMCP			PinkyPIP			PinkyTip			BackHand1			BackHand2			BackHand3	
		X0	Y0	Z0	X1	Y1	Z1	X2	Y2	Z2	X3	Y3	Z3	X4	Y4	Z4	X5	Y5	Z5	X6	Y6	Z6	X7	Y7	Z7	X8	Y8	Z8	X9	Y9	Z9	X10	Y10	Z10	X11	Y11	Z11	X12	Y12	Z12	X13	Y13	Z13	X14	Y14	Z14	X15	Y15	Z15	X16	Y16	Z16	X17	Y17	Z17	X18	Y18	Z18	
36	0.3	-184.73	145.816	11.7097	-155.85	148.366	-15.7394	-142.822	141.359	-38.3676	-129.836	120.371	-60.3027	-207.717	134.734	-70.5443	-205.581	132.337	-98.5847	-189.065	125.632	-123.924	-188.417	110.045	-80.2017	-153.654	110.658	-83.2393	-145.444	108.676	-43.9899	-181.208	86.0655	-69.5828	-148.323	89.3163	-63.9203	-150.825	98.0485	-27.0385	-179.261	69.0675	-57.7285	-154.265	77.8877	-50.9651	-154.318	88.144	-19.8726	-221.673	86.1322	-19.9986	-227.449	87.533	12.9011	-220.247	120.566	-2.42102	
37	0.308333	-185.399	144.186	10.3987	-156.091	149.167	-15.7757	-142.073	143.082	-36.4088	-128.673	123.275	-58.5608	-207.218	134.612	-73.4662	-202.173	132.601	-101.666	-181.695	129.462	-123.461	-187.878	108.25	-77.7778	-152.178	108.528	-81.2026	-144.964	109.048	-43.4877	-179.003	85.0731	-68.8098	-144.649	92.8266	-59.4704	-150.67	94.8112	-23.9863	-182	66.1033	-54.6254	-151.507	74.6438	-50.3228	-152.225	91.2494	-23.2794	-220.194	90.6336	-17.4836	-226.942	84.0067	14.5478	-220.355	124.522	-3.47439	
38	0.316667	-186.762	142.075	11.6579	-153.816	150.945	-11.6669	-139.832	145.435	-36.9643	-129.652	124.284	-53.28	-205.586	135.464	-68.0581	-198.763	135.196	-101.272	-174.289	126.583	-119.924	-185.922	112.89	-77.6518	-149.766	109.489	-79.5245	-144.485	111.028	-38.9698	-175.35	88.9298	-68.9091	-143.17	91.8884	-59.0702	-147.774	96.7369	-25.6732	-176.602	68.4388	-54.438	-148.827	74.7168	-48.3816	-153.258	89.7444	-15.3874	-217.77	86.1967	-18.0086	-225.148	88.3575	14.4383	-221.151	123.908	-2.08346	
39	0.325	-186.482	140.813	12.357	-156.197	146.694	-8.67572	-139.233	143.638	-37.4662	-128.458	120.322	-57.1666	-203.895	133.716	-72.5444	-196.539	131.945	-98.7442	-164.631	128.569	-115.346	-181.569	107.213	-79.6089	-146.675	108.876	-76.9797	-141.587	109.988	-41.4372	-173.578	89.0126	-67.4749	-141.162	91.2491	-55.9257	-148.037	95.2519	-21.5271	-171.998	66.8915	-54.2414	-146.615	76.5483	-44.8492	-155.552	89.3321	-15.1635	-218.145	88.6244	-18.6838	-223.453	84.4222	14.4438	-219.252	123.181	0.207276	
40	0.333333	-183.008	145.893	12.1097	-154.058	147.914	-11.2734	-138.228	144.792	-36.5016	-125.62	122.412	-56.013	-202.824	131.972	-72.1239	-190.042	131.125	-99.5273	-158.535	126.182	-107.743	-180.495	108.058	-78.5152	-146.374	109.15	-78.727	-140.822	116.341	-40.2845	-170.743	85.975	-66.7819	-138.853	91.5441	-56.3219	-147.381	98.9704	-21.2327	-173.471	68.5888	-52.7402	-144.735	75.4149	-44.3548	-152.776	92.5039	-15.9724	-215.681	84.3723	-21.8495	-222.804	85.0085	14.8642	-219.506	120.048	-1.01256	
41	0.341667	-183.058	146.056	13.0468	-152.816	146.753	-7.11937	-134.883	143.942	-37.5115	-127.231	120.422	-54.295	-199.763	134.095	-69.0869	-188.109	129.586	-97.9085	-153.575	125.928	-100.615	-178.584	107.868	-79.3471	-144.084	110.125	-78.6299	-140.364	111.37	-38.8882	-169.431	84.9282	-66.2454	-137.755	93.5478	-55.7336	-144.469	100.492	-22.5217	-169.221	65.0836	-52.7129	-143.037	76.9978	-42.7635	-152.279	90.156	-11.4923	-214.063	86.6921	-20.2184	-220.938	87.8588	14.5901	-217.278	122.372	0.546009	
42	0.35	-180.924	142.816	10.6507	-149.457	149.517	-9.01538	-136.617	139.14	-36.9823	-126.457	120.251	-51.5611	-198.629	135.972	-68.8803	-180.943	129.2	-98.7706	-145.438	130.149	-93.7648	-175.918	108.489	-79.7619	-142.253	107.87	-77.5222	-140.352	116.252	-37.1094	-167.715	85.3403	-65.1185	-135.294	88.63	-51.9656	-143.01	98.5029	-21.2392	-168.245	65.3093	-51.9845	-142.013	77.5107	-42.6931	-150.299	91.8451	-14.1473	-213.515	87.3634	-17.8947	-219.897	86.1252	15.7343	-215.653	121.067	0.289205	
43	0.358333	-179.76	143.98	12.7176	-150.4	145.532	-9.71139	-134.839	141.282	-32.7202	-123.985	117.765	-53.95	-196.522	130.526	-70.1742	-181.743	130.02	-98.1192	-146.47	128.73	-92.0128	-177.419	107.035	-76.6206	-139.89	110.996	-77.1536	-138.737	112.918	-39.4687	-164.114	87.0076	-66.5588	-134.979	89.2753	-55.1879	-142.292	94.528	-19.999	-167.087	68.9656	-53.6389	-141.267	76.2781	-43.7141	-146.622	90.5668	-15.8697	-212.372	89.2528	-20.8745	-220.374	83.3889	15.2646	-214.444	123.01	0.881341	
44	0.366667	-180.689	139.645	14.4744	-147.194	147.375	-8.75374	-131.803	142.37	-37.5025	-125.125	118.841	-51.9963	-194.516	133.353	-68.485	-179.966	127.551	-97.2062	-143.125	128.604	-87.1438	-177.148	110.059	-75.863	-142.093	107.497	-79.5081	-136.8	113.547	-39.1404	-162.876	85.1525	-67.0675	-134.177	88.2408	-56.0325	-141.983	93.4997	-20.7067	-170.035	67.2616	-51.2111	-139.581	75.4671	-41.7137	-149.527	91.3364	-13.9479	-211.172	87.7936	-18.7091	-219.219	88.3795	14.4304	-214.514	124.026	-3.00737	
45	0.375	-179.106	141.664	12.508	-146.994	146.123	-10.8149	-132.883	139.166	-32.0859	-120.805	121.696	-49.4551	-193.926	133.501	-69.6439	-176.264	129.24	-97.6357	-142.775	130.032	-88.1029	-173.411	109.374	-78.262	-138.183	106.024	-75.2822	-134.822	112.01	-39.1092	-165.339	89.0432	-67.1175	-134.34	89.4376	-56.8564	-142.977	94.7849	-20.2574	-165.458	66.7968	-53.5144	-139.038	73.1969	-43.3944	-144.228	88.7124	-15.6167	-211.172	84.0645	-18.4886	-220.979	87.9725	16.0657	-213.554	122.085	-0.939281	
46	0.383333	-179.377	143.82	9.84853	-145.625	148.122	-9.01445	-131.814	140.511	-32.6032	-122.996	117.373	-50.4989	-193.567	133.662	-68.9395	-178.702	126.637	-97.5922	-142.233	125.231	-90.4745	-173.135	111.043	-78.8576	-136.156	109.617	-75.9933	-134.174	111.607	-39.0775	-165.236	83.0515	-66.4871	-132.624	90.3819	-56.3537	-139.44	92.0603	-22.2057	-164.374	66.6119	-53.9625	-140.213	75.089	-46.9689	-143.895	86.8544	-16.9031	-210.587	88.208	-20.7602	-219.371	85.9178	15.5539	-212.811	122.957	-2.09698	
47	0.391667	-177.818	143.866	11.5677	-147.455	143.116	-9.6667	-128.601	142.084	-35.382	-116.592	120.366	-51.8651	-193.142	132.754	-72.1945	-179.605	128.574	-97.5135	-143.116	127.283	-98.963	-174.42	108.646	-76.5162	-137.159	105.713	-77.2863	-132.821	112.929	-38.4426	-160.752	84.4114	-67.1385	-132.374	89.9543	-55.2785	-139.043	93.3449	-20.3598	-166.652	67.8648	-51.5779	-138.528	74.3266	-42.9678	-145.703	87.6894	-13.6588	-208.993	86.3741	-17.6031	-220.134	88.4969	11.9525	-213.895	123.043	-2.72155	
48	0.4	-179.125	141.846	14.1369	-147.076	142.74	-7.95511	-127.899	142.11	-33.7453	-119.865	118.085	-50.659	-192.953	133.024	-70.305	-179.39	126.023	-99.0838	-146.087	123.43	-105.364	-173.238	106.383	-76.4078	-136.008	109.388	-76.8624	-132.534	114.91	-37.5064	-163.854	87.1503	-64.6325	-130.627	86.0672	-51.8734	-140.531	97.7657	-19.7102	-162.764	64.9144	-52.5427	-137.425	75.9277	-41.0279	-142.393	88.1198	-15.2594	-210.453	84.4094	-18.5291	-218.748	85.7077	10.8431	-214.174	118.042	-1.91884	
49	0.408333	-177.374	144.9	10.3482	-147.768	143.337	-8.18551	-129.942	140.41	-32.1622	-116.951	120.007	-51.8328	-192.385	132.742	-72.6996	-178.768	128.843	-100.916	-150.458	125.278	-111.13	-171.846	108.327	-78.1954	-136.701	107.121	-76.7885	-132.371	109.533	-35.5263	-161.973	84.8617	-66.2911	-130.264	89.4642	-51.9504	-137.022	93.5617	-19.5455	-168.761	68.6368	-50.2962	-139.602	76.703	-44.2297	-140.497	87.9465	-11.6629	-210.966	86.4774	-22.0438	-218.324	88.53	12.6081	-213.507	120.684	-3.59246	
50	0.416667	-178.598	142.936	15.1604	-146.668	144.306	-9.04545	-130.033	139.336	-30.9551	-113.81	122.442	-51.6518	-191.6	136.199	-67.9194	-182.313	126.987	-100.652	-158.191	125.883	-116.212	-171.891	107.903	-76.8253	-136.154	106.79	-76.7506	-129.751	108.412	-39.2551	-164.232	86.2309	-65.4014	-130.02	86.9623	-51.1039	-137.764	94.7201	-18.076	-164.037	66.7352	-51.4565	-137.371	72.5841	-43.5463	-140.067	89.9432	-15.3921	-211.314	86.4745	-19.6895	-221.028	85.3033	11.256	-214.503	120.199	-4.02236	
51	0.425	-177.786	143.012	15.1656	-144.088	146.107	-6.65346	-129.61	138.21	-30.6961	-114.614	120.23	-53.3072	-192.844	135.023	-70.1221	-185.388	131.044	-99.685	-163.598	124.648	-122.073	-172.26	109.348	-76.5886	-138.137	109.76	-79.5024	-130.22	108.933	-35.2284	-163.54	88.6683	-65.875	-130.763	90.5677	-52.8488	-134.979	92.3796	-20.9601	-167.162	63.9076	-50.627	-138.257	75.4973	-41.0053	-145.234	91.0657	-15.7316	-210.755	88.6482	-21.469	-220.318	84.1615	12.2738	-214.755	123.3	-4.61497	
52	0.433333	-179.6	139.788	11.1865	-147.298	142.339	-6.28543	-127.918	139.279	-36.8668	-115.852	120.228	-53.1558	-193.791	133.146	-68.9009	-188.703	130.046	-98.063	-171.43	123.696	-123.448	-170.236	107.25	-79.7243	-137.541	108.997	-78.8662	-128.688	112.614	-38.7853	-165.489	83.3906	-64.1875	-132.107	89.4046	-53.6863	-135.247	93.4963	-19.6974	-166.341	64.259	-50.3328	-139.452	75.6853	-39.6965	-145.181	91.1891	-10.1031	-210.214	88.7516	-22.6963	-223.044	83.8664	13.9752	-214.56	123.488	-6.60419	
53	0.441667	-178.278	142.262	13.504	-145.559	143.641	-11.9499	-127.584	139.286	-36.3091	-116.725	121.45	-52.0217	-194.298	135.156	-68.6296	-189.998	132.786	-98.7205	-179.433	128.075	-121.73	-170.52	112.541	-79.3897	-135.455	108.916	-76.3823	-129.029	110.149	-38.2561	-164.348	89.624	-66.3227	-133.671	88.1402	-54.7567	-132.396	96.0361	-23.4516	-168.495	68.0009	-51.9378	-141.468	78.1728	-41.8874	-145.026	93.9476	-14.7556	-214.677	86.8775	-20.0016	-223.177	87.3229	11.7612	-214.676	125.923	-6.76204	
54	0.45	-178.001	143.117	8.14097	-146.852	142.152	-10.2935	-128.508	138.868	-35.7475	-116.988	121.663	-52.4981	-195.299	135.14	-70.1588	-192.666	132.635	-101.753	-184.565	127.364	-122.883	-173.141	107.711	-78.8823	-136.339	109.148	-75.915	-128.998	111.911	-38.1425	-166.061	84.951	-65.3819	-132.463	86.3455	-52.7244	-133.201	96.0945	-23.5216	-166.122	67.3041	-52.5232	-141.468	77.2308	-42.0549	-147.934	94.253	-16.3227	-214.426	87.9796	-22.7053	-221.371	85.7526	12.8933	-213.14	125.338	-5.39865	
55	0.458333	-179.418	141.514	8.65525	-146.174	144.03	-13.3889	-131.352	137.497	-35.6271	-114.074	123.605	-55.8707	-196.607	134.117	-68.8047	-193.723	131.13	-99.2267	-186.95	125.686	-124.65	-173.776	110.941	-79.0777	-136.7	111.134	-77.9143	-128.567	109.66	-41.7763	-168.536	89.1128	-66.2259	-131.338	89.2196	-53.1979	-131.873	96.7416	-23.958	-167.51	66.1121	-52.277	-142.44	78.0502	-44.7451	-147.595	94.2697	-12.929	-213.026	91.1341	-21.6955	-221.845	90.4953	10.5119	-216.809	124.63	-3.59902	
